<svg width="24" height="26" viewBox="0 0 24 26" fill="none" xmlns="http://www.w3.org/2000/svg">
<path d="M10 -3.57628e-07C8.4087 -3.57628e-07 6.88258 0.579462 5.75736 1.61091C4.63214 2.64236 4 4.04131 4 5.5C4 6.95869 4.63214 8.35764 5.75736 9.38909C6.88258 10.4205 8.4087 11 10 11L10 5.5L10 -3.57628e-07Z" fill="#0D1011"/>
<path d="M11 26C13.9174 26 16.7153 24.8411 18.7782 22.7782C20.8411 20.7153 22 17.9174 22 15C22 12.0826 20.8411 9.28473 18.7782 7.22183C16.7153 5.15893 13.9174 4 11 4L11 15L11 26Z" fill="#0D1011"/>
</svg>
