<svg width="25" height="24" viewBox="0 0 25 24" fill="none" xmlns="http://www.w3.org/2000/svg">
<g clip-path="url(#clip0_1_129)">
<path d="M12.3333 11.5333C14.1333 11.5333 15.5333 10.0667 15.5333 8.26667C15.5333 6.46667 14.0666 5.06667 12.2666 5.06667C10.4666 5.06667 9.06665 6.53333 9.06665 8.26667C9.06665 10.0667 10.5333 11.5333 12.3333 11.5333ZM12.2666 6.4C12.3333 6.4 12.3333 6.4 12.2666 6.4C13.3333 6.4 14.2 7.26667 14.2 8.33333C14.2 9.4 13.3333 10.2 12.2666 10.2C11.2 10.2 10.4 9.33333 10.4 8.33333C10.4 7.26667 11.2666 6.4 12.2666 6.4Z" fill="#0D1011"/>
<path d="M22.2 11.1333C20.9333 10 19.2667 9.4 17.5333 9.46667H17C16.8667 10 16.6667 10.4667 16.4 10.8667C16.8 10.8 17.1333 10.8 17.5333 10.8C18.8 10.7333 20.0667 11.1333 21.0667 11.8667V16.6667H22.4V11.3333L22.2 11.1333Z" fill="#0D1011"/>
<path d="M16 5.2C16.3333 4.4 17.2667 4 18.1333 4.33334C18.9333 4.66667 19.3333 5.6 19 6.46667C18.7333 7.06667 18.1333 7.46667 17.5333 7.46667C17.4 7.46667 17.2 7.46667 17.0667 7.4C17.1333 7.73334 17.1333 8.06667 17.1333 8.33333V8.73334C17.2667 8.73334 17.4 8.8 17.5333 8.8C19.2 8.8 20.5333 7.46667 20.5333 5.86667C20.5333 4.2 19.2 2.86667 17.6 2.86667C16.5333 2.86667 15.6 3.4 15.0667 4.33334C15.4 4.53334 15.7333 4.8 16 5.2Z" fill="#0D1011"/>
<path d="M8.39999 10.9333C8.13333 10.5333 7.93333 10.0667 7.79999 9.53333H7.26666C5.53333 9.46666 3.86666 10.0667 2.59999 11.1333L2.39999 11.3333V16.6667H3.73333V11.8667C4.79999 11.1333 5.99999 10.7333 7.26666 10.8C7.66666 10.8 8.06666 10.8667 8.39999 10.9333Z" fill="#0D1011"/>
<path d="M7.26667 8.73333C7.4 8.73333 7.53334 8.73333 7.66667 8.66666V8.26666C7.66667 7.93333 7.66667 7.59999 7.73334 7.33333C7.6 7.39999 7.4 7.39999 7.26667 7.39999C6.4 7.39999 5.66667 6.66666 5.66667 5.79999C5.66667 4.93333 6.4 4.19999 7.26667 4.19999C7.93334 4.19999 8.53334 4.59999 8.8 5.19999C9.06667 4.86666 9.46667 4.53333 9.8 4.26666C8.93334 2.86666 7.13334 2.39999 5.73334 3.26666C4.33334 4.13333 3.86667 5.93333 4.73334 7.33333C5.26667 8.19999 6.2 8.73333 7.26667 8.73333Z" fill="#0D1011"/>
<path d="M17.8 15.1333L17.6666 14.9333C16.3333 13.4667 14.4667 12.6 12.4667 12.6667C10.4667 12.6 8.53332 13.4667 7.19998 14.9333L7.06665 15.1333V20.2C7.06665 20.8 7.53332 21.3333 8.19998 21.3333H16.7333C17.3333 21.3333 17.8667 20.8 17.8667 20.2V15.1333H17.8ZM16.4667 20H8.39998V15.6C9.46665 14.5333 10.9333 14 12.4667 14C13.9333 13.9333 15.4 14.5333 16.4667 15.6V20Z" fill="#0D1011"/>
</g>
<defs>
<clipPath id="clip0_1_129">
<rect width="24" height="24" fill="white" transform="translate(0.399994)"/>
</clipPath>
</defs>
</svg>
